<svg id="360ddf71-c71a-4fa4-861f-32e292894e7f" data-name="Layer 1" xmlns="http://www.w3.org/2000/svg" viewBox="0 0 99.14 27.78"><title>lm.logo.12-4</title><g opacity="0.54"><path d="M40.77,27.64c-0.43.71-.83,1.39-1.27,2.05a8.92,8.92,0,0,1-1,1.31,1.59,1.59,0,0,1-2.78-.55c-0.08-.19-0.15-0.38-0.24-0.64-0.52.35-1,.67-1.48,1a3.64,3.64,0,0,1-1.69.75,2.58,2.58,0,0,1-2.57-1.14l-0.12-.15c-0.33.18-.64,0.37-1,0.52a8.28,8.28,0,0,1-4.85.71,5.36,5.36,0,0,1-4-3.08l-0.18-.36-0.32.32c-0.55.51-1.1,1-1.66,1.52a1.12,1.12,0,0,1-1.17.22,9.59,9.59,0,0,1-1.52-.63c-0.58-.33-0.62-0.67-0.13-1.12,0.85-.8,1.73-1.56,2.62-2.32,0.56-.48,1.15-0.93,1.75-1.36a0.85,0.85,0,0,0,.35-0.6,37.07,37.07,0,0,1,1.8-6.73,19.34,19.34,0,0,1,4-6.79,8.54,8.54,0,0,1,2.37-1.83,2.87,2.87,0,0,1,4.2,2,5.76,5.76,0,0,1-.4,3.58,20.38,20.38,0,0,1-3.8,6.23c-1.54,1.76-3.17,3.45-4.79,5.14a1,1,0,0,0-.27.93A2.94,2.94,0,0,0,25.52,29,11.29,11.29,0,0,0,29,28.52a0.88,0.88,0,0,0,.66-0.79c0.39-2,.83-4.06,1.25-6.09,0-.23.09-0.45,0.13-0.68a0.92,0.92,0,0,1,.89-0.9,7.54,7.54,0,0,1,1.24,0c0.38,0,.48.18,0.4,0.55-0.39,1.88-.79,3.76-1.18,5.65-0.09.46-.17,0.93-0.23,1.4a1.09,1.09,0,0,0,1.18,1.22,3.68,3.68,0,0,0,1.88-.72,0.54,0.54,0,0,0,.11-0.39c0-2-.1-4.06-0.14-6.09a8.8,8.8,0,0,1,.08-1.45,0.73,0.73,0,0,1,1-.7,13.94,13.94,0,0,1,1.66.55,0.49,0.49,0,0,1,.32.61c-0.15,1.13-.31,2.26-0.44,3.4s-0.26,2.57-.37,3.85a2.2,2.2,0,0,0,.05.58c0,0.24.19,0.27,0.33,0.09a3.25,3.25,0,0,0,.43-0.67q1-2.21,1.95-4.43c0.32-.75.62-1.51,0.94-2.27a0.72,0.72,0,0,1,1.19-.45,8.6,8.6,0,0,1,1,.62,0.53,0.53,0,0,1,.18.72c-0.41,1.06-.79,2.14-1.19,3.21a2,2,0,0,0,1.24,2.36c0.15,0,.31,0,0.49.08-0.1-.48-0.22-0.9-0.27-1.33A5.43,5.43,0,0,1,45,21.92a3.32,3.32,0,0,1,5.65.54,3.61,3.61,0,0,1-.28,3.63,6.25,6.25,0,0,1-2.26,2.14l-0.42.27a1.54,1.54,0,0,0,1.07.48,4.2,4.2,0,0,0,4.54-2.27,1.52,1.52,0,0,1,2-.67,0.74,0.74,0,0,1,.28.42,0.54,0.54,0,0,1-.05.33,7.38,7.38,0,0,1-3.19,4c-2,1.14-5.39.94-7.11-1a0.45,0.45,0,0,0-.35-0.13,3.46,3.46,0,0,1-4-1.84ZM22.24,22.48l0.1,0c0.08-.07.17-0.14,0.25-0.23,1.07-1.15,2.15-2.28,3.19-3.46a27.24,27.24,0,0,0,3.77-5.65,2.59,2.59,0,0,0,.35-1.49,1,1,0,0,0-1.27-.86,3.05,3.05,0,0,0-1,.57,13.28,13.28,0,0,0-3,4.11,30.7,30.7,0,0,0-2,5.3C22.52,21.37,22.39,21.93,22.24,22.48Zm24,4.24,0.13,0.09c0.66-.52,1.33-1,2-1.55a2,2,0,0,0,.65-1.81,1.15,1.15,0,0,0-1.24-1.12,1.56,1.56,0,0,0-1.42,1.09A5.14,5.14,0,0,0,46.19,26.73Z" transform="translate(-14.43 -8.36)" fill="#fff"/><path d="M66.54,25.64c0.25-.53.49-1.06,0.75-1.58a12.66,12.66,0,0,1,1.87-2.9,3.24,3.24,0,0,1,1.36-1,1.35,1.35,0,0,1,1.11.06,0.73,0.73,0,0,1,.46.87c-0.19,1.32-.4,2.64-0.59,4a1.72,1.72,0,0,0,0,.57c0.05-.11.12-0.22,0.16-0.33a14.25,14.25,0,0,1,1.89-3.56,8.33,8.33,0,0,1,1.21-1.23,1.83,1.83,0,0,1,1.46-.41A0.83,0.83,0,0,1,77,21c0,0.57-.06,1.15-0.09,1.72-0.09,1.67-.18,3.34-0.25,5a3.4,3.4,0,0,0,.13.82,0.33,0.33,0,0,0,.48.29,2.65,2.65,0,0,0,.36-0.12c0.41-.2.43-0.26,0.27-0.68a6,6,0,0,1,.42-5.48,3.93,3.93,0,0,1,2.74-1.87,3.37,3.37,0,0,1,3.7,2.94,4.7,4.7,0,0,1-2.14,4.14c-0.36.28-.75,0.51-1.15,0.78a1.39,1.39,0,0,0,1,.47A4.17,4.17,0,0,0,87,26.87L87,26.78A1.51,1.51,0,0,1,89,26a0.41,0.41,0,0,1,.34.57,10.53,10.53,0,0,1-.71,1.6,6.05,6.05,0,0,1-9.28,2,0.34,0.34,0,0,0-.47,0c-0.74.45-1.48,0.88-2.25,1.28a2.34,2.34,0,0,1-1.59.12,0.61,0.61,0,0,1-.58-0.62c0-1-.07-1.94-0.12-2.9s-0.09-2.12-.14-3.18a1.42,1.42,0,0,0-.09-0.31l-0.1,0a3.79,3.79,0,0,0-.36.55c-0.59,1.38-1.16,2.76-1.74,4.14-0.26.6-.53,1.2-0.79,1.81a0.72,0.72,0,0,1-.74.47,6.78,6.78,0,0,1-1.06-.09A0.4,0.4,0,0,1,69,30.87c0.22-1.55.42-3.11,0.61-4.66a10.31,10.31,0,0,0,0-1.34,0.76,0.76,0,0,0-.19-0.3,0.86,0.86,0,0,0-.26.2c-0.38.7-.77,1.39-1.11,2.11q-1,2.12-2,4.26a0.7,0.7,0,0,1-.76.47c-0.43,0-.86-0.12-1.29-0.2A0.37,0.37,0,0,1,63.77,31c0.06-.89.07-1.78,0.16-2.66,0.15-1.51.32-3,.54-4.53,0.15-1.06.38-2.11,0.56-3.16a0.54,0.54,0,0,1,.57-0.49,7.64,7.64,0,0,1,.93,0,0.72,0.72,0,0,1,.77.93c-0.1.74-.24,1.48-0.38,2.21s-0.29,1.42-.44,2.13a1.67,1.67,0,0,0,0,.24h0.07ZM80,26.75a8.5,8.5,0,0,0,2-1.41,2.3,2.3,0,0,0,.71-1.45,1.26,1.26,0,0,0-1.41-1.55,1.45,1.45,0,0,0-1.09.77A4.85,4.85,0,0,0,80,26.75Z" transform="translate(-14.43 -8.36)" fill="#fff"/><path d="M32.69,18.89a1.34,1.34,0,0,1-1.35-1.8,1.79,1.79,0,0,1,2.31-1.23,1.35,1.35,0,0,1,.88,1.65A1.87,1.87,0,0,1,32.69,18.89Z" transform="translate(-14.43 -8.36)" fill="#fff"/><path d="M93.17,28.55l-0.3,1.63h1.21l-0.24,1.23H92.64l-0.43,2.2a3.67,3.67,0,0,0-.08.67,0.43,0.43,0,0,0,.49.49,3,3,0,0,0,.45,0L92.86,36a3.34,3.34,0,0,1-1,.12,1.24,1.24,0,0,1-1.46-1.27,5,5,0,0,1,.12-1L91,31.41H90.28l0.24-1.23h0.73l0.23-1.23Z" transform="translate(-14.43 -8.36)" fill="#fff"/><path d="M99.57,32.35c0,2-1.32,3.79-3.26,3.79A2.14,2.14,0,0,1,94,33.84a3.53,3.53,0,0,1,3.3-3.8A2.14,2.14,0,0,1,99.57,32.35ZM95.72,33.8a0.9,0.9,0,0,0,.8,1.09c0.87,0,1.36-1.57,1.36-2.58a0.84,0.84,0,0,0-.78-1C96.21,31.31,95.71,32.86,95.72,33.8Z" transform="translate(-14.43 -8.36)" fill="#fff"/><path d="M105.79,32.35c0,2-1.31,3.79-3.26,3.79a2.14,2.14,0,0,1-2.27-2.3,3.53,3.53,0,0,1,3.3-3.8A2.14,2.14,0,0,1,105.79,32.35Zm-3.85,1.45a0.9,0.9,0,0,0,.8,1.09c0.87,0,1.36-1.57,1.36-2.58a0.84,0.84,0,0,0-.78-1C102.43,31.31,101.93,32.86,101.94,33.8Z" transform="translate(-14.43 -8.36)" fill="#fff"/><path d="M106.22,36l1.61-8.43h1.65L107.87,36h-1.65Z" transform="translate(-14.43 -8.36)" fill="#fff"/><path d="M109.43,34.56a3.18,3.18,0,0,0,1.35.36,0.63,0.63,0,0,0,.72-0.57,1,1,0,0,0-.68-0.79A1.82,1.82,0,0,1,109.73,32c0-1.16,1-2,2.45-2a2.94,2.94,0,0,1,1.39.29l-0.38,1.17a2.47,2.47,0,0,0-1-.23,0.64,0.64,0,0,0-.77.55,0.9,0.9,0,0,0,.63.68,2,2,0,0,1,1.17,1.58c0,1.33-1.06,2-2.55,2a3,3,0,0,1-1.61-.41Z" transform="translate(-14.43 -8.36)" fill="#fff"/></g></svg>